M48
;Layer_Color=9474304
;FILE_FORMAT=2:5
INCH,LZ
;TYPE=PLATED
T1F00S00C0.03543
%
T01
X0099807Y01265
Y01365
Y01465
X0109807
Y01365
Y01265
X0170996
Y01365
Y01465
X0180996
Y01365
Y01265
X0370996
Y01365
Y01465
X0380996
Y01365
Y01265
X0442185
Y01365
Y01465
X0452185
Y01365
Y01265
Y01565
Y01665
Y01765
Y01865
Y01965
Y02065
Y02165
Y02265
Y02365
Y02465
Y02565
Y02665
Y02765
Y02865
Y02965
Y03065
X0442185
Y02965
Y02865
Y02765
Y02665
Y02565
Y02465
Y02365
Y02265
Y02165
Y02065
Y01965
Y01865
Y01765
Y01665
Y01565
X0380996
Y01665
Y01765
Y01865
Y01965
Y02065
Y02165
Y02265
Y02365
Y02465
Y02565
Y02665
Y02765
Y02865
Y02965
Y03065
X0370996
Y02965
Y02865
Y02765
Y02665
Y02565
Y02465
Y02365
Y02265
Y02165
Y02065
Y01965
Y01865
Y01765
Y01665
Y01565
X0180996
Y01665
Y01765
Y01865
Y01965
Y02065
Y02165
Y02265
Y02365
Y02465
Y02565
Y02665
Y02765
Y02865
Y02965
Y03065
X0170996
Y02965
Y02865
Y02765
Y02665
Y02565
Y02465
Y02365
Y02265
Y02165
Y02065
Y01965
Y01865
Y01765
Y01665
Y01565
X0109807
Y01665
Y01765
Y01865
Y01965
Y02065
Y02165
Y02265
Y02365
Y02465
Y02565
Y02665
Y02765
Y02865
Y02965
Y03065
X0099807
Y02965
Y02865
Y02765
Y02665
Y02565
Y02465
Y02365
Y02265
Y02165
Y02065
Y01965
Y01865
Y01765
Y01665
Y01565
Y03165
Y03265
Y03365
Y03465
Y03565
Y03665
X0109807
Y03565
Y03465
Y03365
Y03265
Y03165
X0170996
Y03265
Y03365
Y03465
Y03565
Y03665
X0180996
Y03565
Y03465
Y03365
Y03265
Y03165
X0370996
Y03265
Y03365
Y03465
Y03565
Y03665
X0380996
Y03565
Y03465
Y03365
Y03265
Y03165
X0442185
Y03265
Y03365
Y03465
Y03565
Y03665
X0452185
Y03565
Y03465
Y03365
Y03265
Y03165
M30
