G04 Layer_Color=65535*
%FSLAX25Y25*%
%MOIN*%
G70*
G01*
G75*
%ADD10C,0.00787*%
%ADD11C,0.01000*%
D10*
X435693Y121500D02*
Y371500D01*
X455693Y121500D02*
Y371500D01*
Y121500D02*
X435693D01*
X455693Y371500D02*
X435693D01*
X364504Y121500D02*
Y371500D01*
X384504Y121500D02*
Y371500D01*
Y121500D02*
X364504D01*
X384504Y371500D02*
X364504D01*
X93315Y121500D02*
Y371500D01*
X113315Y121500D02*
Y371500D01*
Y121500D02*
X93315D01*
X113315Y371500D02*
X93315D01*
X164504Y121500D02*
Y371500D01*
X184504Y121500D02*
Y371500D01*
Y121500D02*
X164504D01*
X184504Y371500D02*
X164504D01*
X126401Y367624D02*
X126926Y368149D01*
X127975D01*
X128500Y367624D01*
Y365525D01*
X127975Y365000D01*
X126926D01*
X126401Y365525D01*
Y366574D01*
X127451D01*
X125351Y365000D02*
Y368149D01*
X123252Y365000D01*
Y368149D01*
X122203D02*
Y365000D01*
X120628D01*
X120104Y365525D01*
Y367624D01*
X120628Y368149D01*
X122203D01*
X126401Y358149D02*
X128500D01*
Y356574D01*
X127451Y357099D01*
X126926D01*
X126401Y356574D01*
Y355525D01*
X126926Y355000D01*
X127975D01*
X128500Y355525D01*
X125351Y358149D02*
Y356049D01*
X124302Y355000D01*
X123252Y356049D01*
Y358149D01*
X128500Y347124D02*
X127975Y347649D01*
X126926D01*
X126401Y347124D01*
Y346599D01*
X126926Y346074D01*
X127451D01*
X126926D01*
X126401Y345550D01*
Y345025D01*
X126926Y344500D01*
X127975D01*
X128500Y345025D01*
X125351Y347649D02*
Y345550D01*
X124302Y344500D01*
X123252Y345550D01*
Y347649D01*
X128500Y334500D02*
Y337649D01*
X126926D01*
X126401Y337124D01*
Y336074D01*
X126926Y335549D01*
X128500D01*
X125351Y337649D02*
Y334500D01*
Y336074D01*
X123252D01*
Y337649D01*
Y334500D01*
X122203Y337124D02*
X121678Y337649D01*
X120628D01*
X120104Y337124D01*
Y335025D01*
X120628Y334500D01*
X121678D01*
X122203Y335025D01*
Y337124D01*
X128500Y324500D02*
Y327649D01*
X126926D01*
X126401Y327124D01*
Y326074D01*
X126926Y325550D01*
X128500D01*
X123252Y327124D02*
X123777Y327649D01*
X124827D01*
X125351Y327124D01*
Y325025D01*
X124827Y324500D01*
X123777D01*
X123252Y325025D01*
X122203Y324500D02*
X121153D01*
X121678D01*
Y327649D01*
X122203Y327124D01*
X118005Y324500D02*
Y327649D01*
X119579Y326074D01*
X117480D01*
X128500Y314500D02*
Y317649D01*
X126926D01*
X126401Y317124D01*
Y316074D01*
X126926Y315549D01*
X128500D01*
X123252Y317649D02*
X125351D01*
Y314500D01*
X123252D01*
X125351Y316074D02*
X124302D01*
X120104Y317649D02*
X121153Y317124D01*
X122203Y316074D01*
Y315025D01*
X121678Y314500D01*
X120628D01*
X120104Y315025D01*
Y315549D01*
X120628Y316074D01*
X122203D01*
X128500Y304500D02*
Y307649D01*
X126926D01*
X126401Y307124D01*
Y306074D01*
X126926Y305550D01*
X128500D01*
X123252Y307649D02*
X125351D01*
Y304500D01*
X123252D01*
X125351Y306074D02*
X124302D01*
X120628Y304500D02*
Y307649D01*
X122203Y306074D01*
X120104D01*
X128500Y234500D02*
Y237649D01*
X126926D01*
X126401Y237124D01*
Y236074D01*
X126926Y235549D01*
X128500D01*
X125351Y237649D02*
Y234500D01*
X123777D01*
X123252Y235025D01*
Y237124D01*
X123777Y237649D01*
X125351D01*
X122203D02*
X120104D01*
Y237124D01*
X122203Y235025D01*
Y234500D01*
X128500Y244500D02*
Y247649D01*
X126926D01*
X126401Y247124D01*
Y246074D01*
X126926Y245550D01*
X128500D01*
X125351Y247649D02*
Y244500D01*
X123777D01*
X123252Y245025D01*
Y245550D01*
X123777Y246074D01*
X125351D01*
X123777D01*
X123252Y246599D01*
Y247124D01*
X123777Y247649D01*
X125351D01*
X120628Y244500D02*
Y247649D01*
X122203Y246074D01*
X120104D01*
X128500Y254500D02*
Y257649D01*
X126926D01*
X126401Y257124D01*
Y256074D01*
X126926Y255550D01*
X128500D01*
X125351Y257649D02*
Y254500D01*
X123777D01*
X123252Y255025D01*
Y255550D01*
X123777Y256074D01*
X125351D01*
X123777D01*
X123252Y256599D01*
Y257124D01*
X123777Y257649D01*
X125351D01*
X120104D02*
X121153Y257124D01*
X122203Y256074D01*
Y255025D01*
X121678Y254500D01*
X120628D01*
X120104Y255025D01*
Y255550D01*
X120628Y256074D01*
X122203D01*
X132000Y267649D02*
Y264500D01*
X130426D01*
X129901Y265025D01*
Y265549D01*
X130426Y266074D01*
X132000D01*
X130426D01*
X129901Y266599D01*
Y267124D01*
X130426Y267649D01*
X132000D01*
X127277D02*
X128327D01*
X128851Y267124D01*
Y265025D01*
X128327Y264500D01*
X127277D01*
X126752Y265025D01*
Y267124D01*
X127277Y267649D01*
X124128D02*
X125178D01*
X125703Y267124D01*
Y265025D01*
X125178Y264500D01*
X124128D01*
X123604Y265025D01*
Y267124D01*
X124128Y267649D01*
X122554D02*
X120455D01*
X121505D01*
Y264500D01*
X119406Y267124D02*
X118881Y267649D01*
X117831D01*
X117307Y267124D01*
Y265025D01*
X117831Y264500D01*
X118881D01*
X119406Y265025D01*
Y267124D01*
X128500Y274500D02*
Y277649D01*
X126926D01*
X126401Y277124D01*
Y276074D01*
X126926Y275550D01*
X128500D01*
X125351Y277649D02*
Y274500D01*
X123777D01*
X123252Y275025D01*
Y275550D01*
X123777Y276074D01*
X125351D01*
X123777D01*
X123252Y276599D01*
Y277124D01*
X123777Y277649D01*
X125351D01*
X122203Y277124D02*
X121678Y277649D01*
X120628D01*
X120104Y277124D01*
Y276599D01*
X120628Y276074D01*
X120104Y275550D01*
Y275025D01*
X120628Y274500D01*
X121678D01*
X122203Y275025D01*
Y275550D01*
X121678Y276074D01*
X122203Y276599D01*
Y277124D01*
X121678Y276074D02*
X120628D01*
X128500Y284500D02*
Y287649D01*
X126926D01*
X126401Y287124D01*
Y286074D01*
X126926Y285549D01*
X128500D01*
X123252Y287649D02*
X125351D01*
Y284500D01*
X123252D01*
X125351Y286074D02*
X124302D01*
X122203Y287124D02*
X121678Y287649D01*
X120628D01*
X120104Y287124D01*
Y285025D01*
X120628Y284500D01*
X121678D01*
X122203Y285025D01*
Y287124D01*
X128500Y294500D02*
Y297649D01*
X126926D01*
X126401Y297124D01*
Y296074D01*
X126926Y295550D01*
X128500D01*
X123252Y297649D02*
X125351D01*
Y294500D01*
X123252D01*
X125351Y296074D02*
X124302D01*
X120104Y294500D02*
X122203D01*
X120104Y296599D01*
Y297124D01*
X120628Y297649D01*
X121678D01*
X122203Y297124D01*
X128500Y164500D02*
Y167649D01*
X126926D01*
X126401Y167124D01*
Y166074D01*
X126926Y165550D01*
X128500D01*
X125351Y164500D02*
Y166599D01*
X124302Y167649D01*
X123252Y166599D01*
Y164500D01*
Y166074D01*
X125351D01*
X122203Y164500D02*
X121153D01*
X121678D01*
Y167649D01*
X122203Y167124D01*
X119579D02*
X119054Y167649D01*
X118005D01*
X117480Y167124D01*
Y165025D01*
X118005Y164500D01*
X119054D01*
X119579Y165025D01*
Y167124D01*
X128500Y174500D02*
Y177649D01*
X126926D01*
X126401Y177124D01*
Y176074D01*
X126926Y175549D01*
X128500D01*
X125351Y174500D02*
Y176599D01*
X124302Y177649D01*
X123252Y176599D01*
Y174500D01*
Y176074D01*
X125351D01*
X122203Y174500D02*
X121153D01*
X121678D01*
Y177649D01*
X122203Y177124D01*
X118005Y174500D02*
Y177649D01*
X119579Y176074D01*
X117480D01*
X128500Y185000D02*
Y188149D01*
X126926D01*
X126401Y187624D01*
Y186574D01*
X126926Y186049D01*
X128500D01*
X123252Y187624D02*
X123777Y188149D01*
X124827D01*
X125351Y187624D01*
Y185525D01*
X124827Y185000D01*
X123777D01*
X123252Y185525D01*
X122203Y185000D02*
X121153D01*
X121678D01*
Y188149D01*
X122203Y187624D01*
X119579D02*
X119054Y188149D01*
X118005D01*
X117480Y187624D01*
Y185525D01*
X118005Y185000D01*
X119054D01*
X119579Y185525D01*
Y187624D01*
X128500Y194500D02*
Y197649D01*
X126926D01*
X126401Y197124D01*
Y196074D01*
X126926Y195549D01*
X128500D01*
X123252Y197124D02*
X123777Y197649D01*
X124827D01*
X125351Y197124D01*
Y195025D01*
X124827Y194500D01*
X123777D01*
X123252Y195025D01*
X122203Y194500D02*
X121153D01*
X121678D01*
Y197649D01*
X122203Y197124D01*
X117480Y194500D02*
X119579D01*
X117480Y196599D01*
Y197124D01*
X118005Y197649D01*
X119054D01*
X119579Y197124D01*
X128500Y205000D02*
Y208149D01*
X126926D01*
X126401Y207624D01*
Y206574D01*
X126926Y206049D01*
X128500D01*
X125351Y208149D02*
Y205000D01*
X123777D01*
X123252Y205525D01*
Y207624D01*
X123777Y208149D01*
X125351D01*
X122203Y205000D02*
X121153D01*
X121678D01*
Y208149D01*
X122203Y207624D01*
X128500Y214500D02*
Y217649D01*
X126926D01*
X126401Y217124D01*
Y216074D01*
X126926Y215549D01*
X128500D01*
X125351Y217649D02*
Y214500D01*
X123777D01*
X123252Y215025D01*
Y217124D01*
X123777Y217649D01*
X125351D01*
X122203Y217124D02*
X121678Y217649D01*
X120628D01*
X120104Y217124D01*
Y216599D01*
X120628Y216074D01*
X121153D01*
X120628D01*
X120104Y215549D01*
Y215025D01*
X120628Y214500D01*
X121678D01*
X122203Y215025D01*
X128500Y224500D02*
Y227649D01*
X126926D01*
X126401Y227124D01*
Y226074D01*
X126926Y225550D01*
X128500D01*
X125351Y227649D02*
Y224500D01*
X123777D01*
X123252Y225025D01*
Y227124D01*
X123777Y227649D01*
X125351D01*
X120104D02*
X122203D01*
Y226074D01*
X121153Y226599D01*
X120628D01*
X120104Y226074D01*
Y225025D01*
X120628Y224500D01*
X121678D01*
X122203Y225025D01*
X126401Y127624D02*
X126926Y128149D01*
X127975D01*
X128500Y127624D01*
Y125525D01*
X127975Y125000D01*
X126926D01*
X126401Y125525D01*
Y126574D01*
X127451D01*
X125351Y125000D02*
Y128149D01*
X123252Y125000D01*
Y128149D01*
X122203D02*
Y125000D01*
X120628D01*
X120104Y125525D01*
Y127624D01*
X120628Y128149D01*
X122203D01*
X128500Y134500D02*
Y137649D01*
X126926D01*
X126401Y137124D01*
Y136074D01*
X126926Y135549D01*
X128500D01*
X123252Y137124D02*
X123777Y137649D01*
X124827D01*
X125351Y137124D01*
Y135025D01*
X124827Y134500D01*
X123777D01*
X123252Y135025D01*
X120104Y137649D02*
X121153Y137124D01*
X122203Y136074D01*
Y135025D01*
X121678Y134500D01*
X120628D01*
X120104Y135025D01*
Y135549D01*
X120628Y136074D01*
X122203D01*
X128500Y144500D02*
Y147649D01*
X126926D01*
X126401Y147124D01*
Y146074D01*
X126926Y145549D01*
X128500D01*
X123252Y147124D02*
X123777Y147649D01*
X124827D01*
X125351Y147124D01*
Y145025D01*
X124827Y144500D01*
X123777D01*
X123252Y145025D01*
X122203Y147124D02*
X121678Y147649D01*
X120628D01*
X120104Y147124D01*
Y146599D01*
X120628Y146074D01*
X120104Y145549D01*
Y145025D01*
X120628Y144500D01*
X121678D01*
X122203Y145025D01*
Y145549D01*
X121678Y146074D01*
X122203Y146599D01*
Y147124D01*
X121678Y146074D02*
X120628D01*
X128500Y154500D02*
Y157649D01*
X126926D01*
X126401Y157124D01*
Y156074D01*
X126926Y155550D01*
X128500D01*
X125351Y154500D02*
Y156599D01*
X124302Y157649D01*
X123252Y156599D01*
Y154500D01*
Y156074D01*
X125351D01*
X122203Y157124D02*
X121678Y157649D01*
X120628D01*
X120104Y157124D01*
Y156599D01*
X120628Y156074D01*
X120104Y155550D01*
Y155025D01*
X120628Y154500D01*
X121678D01*
X122203Y155025D01*
Y155550D01*
X121678Y156074D01*
X122203Y156599D01*
Y157124D01*
X121678Y156074D02*
X120628D01*
X90000Y154500D02*
Y157649D01*
X88426D01*
X87901Y157124D01*
Y156074D01*
X88426Y155550D01*
X90000D01*
X86851Y154500D02*
Y156599D01*
X85802Y157649D01*
X84752Y156599D01*
Y154500D01*
Y156074D01*
X86851D01*
X83703Y155025D02*
X83178Y154500D01*
X82129D01*
X81604Y155025D01*
Y157124D01*
X82129Y157649D01*
X83178D01*
X83703Y157124D01*
Y156599D01*
X83178Y156074D01*
X81604D01*
X90000Y144500D02*
Y147649D01*
X88426D01*
X87901Y147124D01*
Y146074D01*
X88426Y145549D01*
X90000D01*
X84752Y147124D02*
X85277Y147649D01*
X86327D01*
X86851Y147124D01*
Y145025D01*
X86327Y144500D01*
X85277D01*
X84752Y145025D01*
X83703D02*
X83178Y144500D01*
X82129D01*
X81604Y145025D01*
Y147124D01*
X82129Y147649D01*
X83178D01*
X83703Y147124D01*
Y146599D01*
X83178Y146074D01*
X81604D01*
X90000Y134500D02*
Y137649D01*
X88426D01*
X87901Y137124D01*
Y136074D01*
X88426Y135549D01*
X90000D01*
X84752Y137124D02*
X85277Y137649D01*
X86327D01*
X86851Y137124D01*
Y135025D01*
X86327Y134500D01*
X85277D01*
X84752Y135025D01*
X83703Y137649D02*
X81604D01*
Y137124D01*
X83703Y135025D01*
Y134500D01*
X87901Y127624D02*
X88426Y128149D01*
X89475D01*
X90000Y127624D01*
Y125525D01*
X89475Y125000D01*
X88426D01*
X87901Y125525D01*
Y126574D01*
X88951D01*
X86851Y125000D02*
Y128149D01*
X84752Y125000D01*
Y128149D01*
X83703D02*
Y125000D01*
X82129D01*
X81604Y125525D01*
Y127624D01*
X82129Y128149D01*
X83703D01*
X90000Y224500D02*
Y227649D01*
X88426D01*
X87901Y227124D01*
Y226074D01*
X88426Y225550D01*
X90000D01*
X86851Y227649D02*
Y224500D01*
X85277D01*
X84752Y225025D01*
Y227124D01*
X85277Y227649D01*
X86851D01*
X81604D02*
X82653Y227124D01*
X83703Y226074D01*
Y225025D01*
X83178Y224500D01*
X82129D01*
X81604Y225025D01*
Y225550D01*
X82129Y226074D01*
X83703D01*
X90000Y214500D02*
Y217649D01*
X88426D01*
X87901Y217124D01*
Y216074D01*
X88426Y215549D01*
X90000D01*
X86851Y217649D02*
Y214500D01*
X85277D01*
X84752Y215025D01*
Y217124D01*
X85277Y217649D01*
X86851D01*
X82129Y214500D02*
Y217649D01*
X83703Y216074D01*
X81604D01*
X90000Y205000D02*
Y208149D01*
X88426D01*
X87901Y207624D01*
Y206574D01*
X88426Y206049D01*
X90000D01*
X86851Y208149D02*
Y205000D01*
X85277D01*
X84752Y205525D01*
Y207624D01*
X85277Y208149D01*
X86851D01*
X81604Y205000D02*
X83703D01*
X81604Y207099D01*
Y207624D01*
X82129Y208149D01*
X83178D01*
X83703Y207624D01*
X90000Y194500D02*
Y197649D01*
X88426D01*
X87901Y197124D01*
Y196074D01*
X88426Y195549D01*
X90000D01*
X86851Y197649D02*
Y194500D01*
X85277D01*
X84752Y195025D01*
Y197124D01*
X85277Y197649D01*
X86851D01*
X83703Y197124D02*
X83178Y197649D01*
X82129D01*
X81604Y197124D01*
Y195025D01*
X82129Y194500D01*
X83178D01*
X83703Y195025D01*
Y197124D01*
X90000Y185000D02*
Y188149D01*
X88426D01*
X87901Y187624D01*
Y186574D01*
X88426Y186049D01*
X90000D01*
X84752Y187624D02*
X85277Y188149D01*
X86327D01*
X86851Y187624D01*
Y185525D01*
X86327Y185000D01*
X85277D01*
X84752Y185525D01*
X83703Y185000D02*
X82653D01*
X83178D01*
Y188149D01*
X83703Y187624D01*
X81079Y185000D02*
X80029D01*
X80554D01*
Y188149D01*
X81079Y187624D01*
X90000Y174500D02*
Y177649D01*
X88426D01*
X87901Y177124D01*
Y176074D01*
X88426Y175549D01*
X90000D01*
X86851Y174500D02*
Y176599D01*
X85802Y177649D01*
X84752Y176599D01*
Y174500D01*
Y176074D01*
X86851D01*
X83703Y174500D02*
X82653D01*
X83178D01*
Y177649D01*
X83703Y177124D01*
X78980Y177649D02*
X81079D01*
Y176074D01*
X80029Y176599D01*
X79505D01*
X78980Y176074D01*
Y175025D01*
X79505Y174500D01*
X80554D01*
X81079Y175025D01*
X90000Y164500D02*
Y167649D01*
X88426D01*
X87901Y167124D01*
Y166074D01*
X88426Y165550D01*
X90000D01*
X86851Y164500D02*
Y166599D01*
X85802Y167649D01*
X84752Y166599D01*
Y164500D01*
Y166074D01*
X86851D01*
X83703Y164500D02*
X82653D01*
X83178D01*
Y167649D01*
X83703Y167124D01*
X81079D02*
X80554Y167649D01*
X79505D01*
X78980Y167124D01*
Y166599D01*
X79505Y166074D01*
X80029D01*
X79505D01*
X78980Y165550D01*
Y165025D01*
X79505Y164500D01*
X80554D01*
X81079Y165025D01*
X90000Y294500D02*
Y297649D01*
X88426D01*
X87901Y297124D01*
Y296074D01*
X88426Y295550D01*
X90000D01*
X84752Y297649D02*
X86851D01*
Y294500D01*
X84752D01*
X86851Y296074D02*
X85802D01*
X83703Y297124D02*
X83178Y297649D01*
X82129D01*
X81604Y297124D01*
Y296599D01*
X82129Y296074D01*
X82653D01*
X82129D01*
X81604Y295550D01*
Y295025D01*
X82129Y294500D01*
X83178D01*
X83703Y295025D01*
X90000Y284500D02*
Y287649D01*
X88426D01*
X87901Y287124D01*
Y286074D01*
X88426Y285549D01*
X90000D01*
X84752Y287649D02*
X86851D01*
Y284500D01*
X84752D01*
X86851Y286074D02*
X85802D01*
X83703Y284500D02*
X82653D01*
X83178D01*
Y287649D01*
X83703Y287124D01*
X90000Y274500D02*
Y277649D01*
X88426D01*
X87901Y277124D01*
Y276074D01*
X88426Y275550D01*
X90000D01*
X86851Y277649D02*
Y274500D01*
X85277D01*
X84752Y275025D01*
Y275550D01*
X85277Y276074D01*
X86851D01*
X85277D01*
X84752Y276599D01*
Y277124D01*
X85277Y277649D01*
X86851D01*
X83703Y275025D02*
X83178Y274500D01*
X82129D01*
X81604Y275025D01*
Y277124D01*
X82129Y277649D01*
X83178D01*
X83703Y277124D01*
Y276599D01*
X83178Y276074D01*
X81604D01*
X90000Y267649D02*
Y265549D01*
X88951Y264500D01*
X87901Y265549D01*
Y267649D01*
X86851D02*
Y264500D01*
X85277D01*
X84752Y265025D01*
Y267124D01*
X85277Y267649D01*
X86851D01*
X83703D02*
Y264500D01*
X82129D01*
X81604Y265025D01*
Y267124D01*
X82129Y267649D01*
X83703D01*
X90000Y254500D02*
Y257649D01*
X88426D01*
X87901Y257124D01*
Y256074D01*
X88426Y255550D01*
X90000D01*
X86851Y257649D02*
Y254500D01*
X85277D01*
X84752Y255025D01*
Y255550D01*
X85277Y256074D01*
X86851D01*
X85277D01*
X84752Y256599D01*
Y257124D01*
X85277Y257649D01*
X86851D01*
X83703D02*
X81604D01*
Y257124D01*
X83703Y255025D01*
Y254500D01*
X90000Y244500D02*
Y247649D01*
X88426D01*
X87901Y247124D01*
Y246074D01*
X88426Y245550D01*
X90000D01*
X86851Y247649D02*
Y244500D01*
X85277D01*
X84752Y245025D01*
Y245550D01*
X85277Y246074D01*
X86851D01*
X85277D01*
X84752Y246599D01*
Y247124D01*
X85277Y247649D01*
X86851D01*
X81604D02*
X83703D01*
Y246074D01*
X82653Y246599D01*
X82129D01*
X81604Y246074D01*
Y245025D01*
X82129Y244500D01*
X83178D01*
X83703Y245025D01*
X90000Y234500D02*
Y237649D01*
X88426D01*
X87901Y237124D01*
Y236074D01*
X88426Y235549D01*
X90000D01*
X86851Y237649D02*
Y234500D01*
X85277D01*
X84752Y235025D01*
Y235549D01*
X85277Y236074D01*
X86851D01*
X85277D01*
X84752Y236599D01*
Y237124D01*
X85277Y237649D01*
X86851D01*
X83703Y237124D02*
X83178Y237649D01*
X82129D01*
X81604Y237124D01*
Y236599D01*
X82129Y236074D01*
X82653D01*
X82129D01*
X81604Y235549D01*
Y235025D01*
X82129Y234500D01*
X83178D01*
X83703Y235025D01*
X90000Y304500D02*
Y307649D01*
X88426D01*
X87901Y307124D01*
Y306074D01*
X88426Y305550D01*
X90000D01*
X84752Y307649D02*
X86851D01*
Y304500D01*
X84752D01*
X86851Y306074D02*
X85802D01*
X81604Y307649D02*
X83703D01*
Y306074D01*
X82653Y306599D01*
X82129D01*
X81604Y306074D01*
Y305025D01*
X82129Y304500D01*
X83178D01*
X83703Y305025D01*
X90000Y314500D02*
Y317649D01*
X88426D01*
X87901Y317124D01*
Y316074D01*
X88426Y315549D01*
X90000D01*
X84752Y317124D02*
X85277Y317649D01*
X86327D01*
X86851Y317124D01*
Y315025D01*
X86327Y314500D01*
X85277D01*
X84752Y315025D01*
X83703Y314500D02*
X82653D01*
X83178D01*
Y317649D01*
X83703Y317124D01*
X81079D02*
X80554Y317649D01*
X79505D01*
X78980Y317124D01*
Y316599D01*
X79505Y316074D01*
X80029D01*
X79505D01*
X78980Y315549D01*
Y315025D01*
X79505Y314500D01*
X80554D01*
X81079Y315025D01*
X90000Y324500D02*
Y327649D01*
X88426D01*
X87901Y327124D01*
Y326074D01*
X88426Y325550D01*
X90000D01*
X84752Y327124D02*
X85277Y327649D01*
X86327D01*
X86851Y327124D01*
Y325025D01*
X86327Y324500D01*
X85277D01*
X84752Y325025D01*
X83703Y324500D02*
X82653D01*
X83178D01*
Y327649D01*
X83703Y327124D01*
X78980Y327649D02*
X81079D01*
Y326074D01*
X80029Y326599D01*
X79505D01*
X78980Y326074D01*
Y325025D01*
X79505Y324500D01*
X80554D01*
X81079Y325025D01*
X90000Y334500D02*
Y337649D01*
X88426D01*
X87901Y337124D01*
Y336074D01*
X88426Y335549D01*
X90000D01*
X86851Y337649D02*
Y334500D01*
Y336074D01*
X84752D01*
Y337649D01*
Y334500D01*
X83703D02*
X82653D01*
X83178D01*
Y337649D01*
X83703Y337124D01*
X90000Y347124D02*
X89475Y347649D01*
X88426D01*
X87901Y347124D01*
Y346599D01*
X88426Y346074D01*
X88951D01*
X88426D01*
X87901Y345550D01*
Y345025D01*
X88426Y344500D01*
X89475D01*
X90000Y345025D01*
X86851Y347649D02*
Y345550D01*
X85802Y344500D01*
X84752Y345550D01*
Y347649D01*
X87901Y358149D02*
X90000D01*
Y356574D01*
X88951Y357099D01*
X88426D01*
X87901Y356574D01*
Y355525D01*
X88426Y355000D01*
X89475D01*
X90000Y355525D01*
X86851Y358149D02*
Y356049D01*
X85802Y355000D01*
X84752Y356049D01*
Y358149D01*
X87901Y367624D02*
X88426Y368149D01*
X89475D01*
X90000Y367624D01*
Y365525D01*
X89475Y365000D01*
X88426D01*
X87901Y365525D01*
Y366574D01*
X88951D01*
X86851Y365000D02*
Y368149D01*
X84752Y365000D01*
Y368149D01*
X83703D02*
Y365000D01*
X82129D01*
X81604Y365525D01*
Y367624D01*
X82129Y368149D01*
X83703D01*
X428401Y127124D02*
X428926Y127649D01*
X429975D01*
X430500Y127124D01*
Y125025D01*
X429975Y124500D01*
X428926D01*
X428401Y125025D01*
Y126074D01*
X429451D01*
X427351Y124500D02*
Y127649D01*
X425252Y124500D01*
Y127649D01*
X424203D02*
Y124500D01*
X422628D01*
X422104Y125025D01*
Y127124D01*
X422628Y127649D01*
X424203D01*
X430500Y134000D02*
Y137149D01*
X428401Y134000D01*
Y137149D01*
X425252Y136624D02*
X425777Y137149D01*
X426827D01*
X427351Y136624D01*
Y134525D01*
X426827Y134000D01*
X425777D01*
X425252Y134525D01*
X430500Y144000D02*
Y147149D01*
X428926D01*
X428401Y146624D01*
Y145574D01*
X428926Y145050D01*
X430500D01*
X427351Y147149D02*
Y144000D01*
X425777D01*
X425252Y144525D01*
Y146624D01*
X425777Y147149D01*
X427351D01*
X424203Y144000D02*
X423153D01*
X423678D01*
Y147149D01*
X424203Y146624D01*
X420005Y144000D02*
Y147149D01*
X421579Y145574D01*
X419480D01*
X430500Y154000D02*
Y157149D01*
X428926D01*
X428401Y156624D01*
Y155574D01*
X428926Y155050D01*
X430500D01*
X427351Y157149D02*
Y154000D01*
X425777D01*
X425252Y154525D01*
Y156624D01*
X425777Y157149D01*
X427351D01*
X424203Y154000D02*
X423153D01*
X423678D01*
Y157149D01*
X424203Y156624D01*
X419480Y154000D02*
X421579D01*
X419480Y156099D01*
Y156624D01*
X420005Y157149D01*
X421054D01*
X421579Y156624D01*
X430500Y164000D02*
Y167149D01*
X428926D01*
X428401Y166624D01*
Y165574D01*
X428926Y165050D01*
X430500D01*
X427351Y167149D02*
Y164000D01*
X425777D01*
X425252Y164525D01*
Y166624D01*
X425777Y167149D01*
X427351D01*
X424203Y164000D02*
X423153D01*
X423678D01*
Y167149D01*
X424203Y166624D01*
X421579D02*
X421054Y167149D01*
X420005D01*
X419480Y166624D01*
Y164525D01*
X420005Y164000D01*
X421054D01*
X421579Y164525D01*
Y166624D01*
X430500Y174000D02*
Y177149D01*
X428926D01*
X428401Y176624D01*
Y175574D01*
X428926Y175049D01*
X430500D01*
X427351Y177149D02*
Y174000D01*
X425777D01*
X425252Y174525D01*
Y176624D01*
X425777Y177149D01*
X427351D01*
X424203Y176624D02*
X423678Y177149D01*
X422628D01*
X422104Y176624D01*
Y176099D01*
X422628Y175574D01*
X422104Y175049D01*
Y174525D01*
X422628Y174000D01*
X423678D01*
X424203Y174525D01*
Y175049D01*
X423678Y175574D01*
X424203Y176099D01*
Y176624D01*
X423678Y175574D02*
X422628D01*
X430500Y184500D02*
Y187649D01*
X428926D01*
X428401Y187124D01*
Y186074D01*
X428926Y185549D01*
X430500D01*
X427351Y187649D02*
Y184500D01*
X425777D01*
X425252Y185025D01*
Y185549D01*
X425777Y186074D01*
X427351D01*
X425777D01*
X425252Y186599D01*
Y187124D01*
X425777Y187649D01*
X427351D01*
X424203Y184500D02*
X423153D01*
X423678D01*
Y187649D01*
X424203Y187124D01*
X420005Y184500D02*
Y187649D01*
X421579Y186074D01*
X419480D01*
X430500Y194500D02*
Y197649D01*
X428926D01*
X428401Y197124D01*
Y196074D01*
X428926Y195549D01*
X430500D01*
X427351Y197649D02*
Y194500D01*
X425777D01*
X425252Y195025D01*
Y195549D01*
X425777Y196074D01*
X427351D01*
X425777D01*
X425252Y196599D01*
Y197124D01*
X425777Y197649D01*
X427351D01*
X424203Y194500D02*
X423153D01*
X423678D01*
Y197649D01*
X424203Y197124D01*
X419480Y194500D02*
X421579D01*
X419480Y196599D01*
Y197124D01*
X420005Y197649D01*
X421054D01*
X421579Y197124D01*
X430500Y204000D02*
Y207149D01*
X428926D01*
X428401Y206624D01*
Y205574D01*
X428926Y205049D01*
X430500D01*
X427351Y207149D02*
Y204000D01*
X425777D01*
X425252Y204525D01*
Y205049D01*
X425777Y205574D01*
X427351D01*
X425777D01*
X425252Y206099D01*
Y206624D01*
X425777Y207149D01*
X427351D01*
X424203Y204000D02*
X423153D01*
X423678D01*
Y207149D01*
X424203Y206624D01*
X421579D02*
X421054Y207149D01*
X420005D01*
X419480Y206624D01*
Y204525D01*
X420005Y204000D01*
X421054D01*
X421579Y204525D01*
Y206624D01*
X430500Y214000D02*
Y217149D01*
X428926D01*
X428401Y216624D01*
Y215574D01*
X428926Y215050D01*
X430500D01*
X425252Y217149D02*
X427351D01*
Y214000D01*
X425252D01*
X427351Y215574D02*
X426302D01*
X424203Y214000D02*
X423153D01*
X423678D01*
Y217149D01*
X424203Y216624D01*
X420005Y214000D02*
Y217149D01*
X421579Y215574D01*
X419480D01*
X430500Y224000D02*
Y227149D01*
X428926D01*
X428401Y226624D01*
Y225574D01*
X428926Y225049D01*
X430500D01*
X425252Y227149D02*
X427351D01*
Y224000D01*
X425252D01*
X427351Y225574D02*
X426302D01*
X424203Y224000D02*
X423153D01*
X423678D01*
Y227149D01*
X424203Y226624D01*
X419480Y224000D02*
X421579D01*
X419480Y226099D01*
Y226624D01*
X420005Y227149D01*
X421054D01*
X421579Y226624D01*
X430500Y234000D02*
Y237149D01*
X428926D01*
X428401Y236624D01*
Y235574D01*
X428926Y235050D01*
X430500D01*
X425252Y237149D02*
X427351D01*
Y234000D01*
X425252D01*
X427351Y235574D02*
X426302D01*
X424203Y234000D02*
X423153D01*
X423678D01*
Y237149D01*
X424203Y236624D01*
X421579D02*
X421054Y237149D01*
X420005D01*
X419480Y236624D01*
Y234525D01*
X420005Y234000D01*
X421054D01*
X421579Y234525D01*
Y236624D01*
X430500Y244000D02*
Y247149D01*
X428926D01*
X428401Y246624D01*
Y245574D01*
X428926Y245050D01*
X430500D01*
X425252Y247149D02*
X427351D01*
Y244000D01*
X425252D01*
X427351Y245574D02*
X426302D01*
X424203Y246624D02*
X423678Y247149D01*
X422628D01*
X422104Y246624D01*
Y246099D01*
X422628Y245574D01*
X422104Y245050D01*
Y244525D01*
X422628Y244000D01*
X423678D01*
X424203Y244525D01*
Y245050D01*
X423678Y245574D01*
X424203Y246099D01*
Y246624D01*
X423678Y245574D02*
X422628D01*
X430500Y254000D02*
Y257149D01*
X428926D01*
X428401Y256624D01*
Y255574D01*
X428926Y255049D01*
X430500D01*
X427351Y257149D02*
Y254000D01*
X425777D01*
X425252Y254525D01*
Y255049D01*
X425777Y255574D01*
X427351D01*
X425777D01*
X425252Y256099D01*
Y256624D01*
X425777Y257149D01*
X427351D01*
X422104Y254000D02*
X424203D01*
X422104Y256099D01*
Y256624D01*
X422628Y257149D01*
X423678D01*
X424203Y256624D01*
X430500Y264000D02*
Y267149D01*
X428926D01*
X428401Y266624D01*
Y265574D01*
X428926Y265050D01*
X430500D01*
X427351Y267149D02*
Y264000D01*
X425777D01*
X425252Y264525D01*
Y265050D01*
X425777Y265574D01*
X427351D01*
X425777D01*
X425252Y266099D01*
Y266624D01*
X425777Y267149D01*
X427351D01*
X424203Y266624D02*
X423678Y267149D01*
X422628D01*
X422104Y266624D01*
Y264525D01*
X422628Y264000D01*
X423678D01*
X424203Y264525D01*
Y266624D01*
X430500Y274000D02*
Y277149D01*
X428926D01*
X428401Y276624D01*
Y275574D01*
X428926Y275049D01*
X430500D01*
X425252Y276624D02*
X425777Y277149D01*
X426827D01*
X427351Y276624D01*
Y274525D01*
X426827Y274000D01*
X425777D01*
X425252Y274525D01*
X422628Y274000D02*
Y277149D01*
X424203Y275574D01*
X422104D01*
X430500Y284000D02*
Y287149D01*
X428926D01*
X428401Y286624D01*
Y285574D01*
X428926Y285050D01*
X430500D01*
X427351Y284000D02*
Y286099D01*
X426302Y287149D01*
X425252Y286099D01*
Y284000D01*
Y285574D01*
X427351D01*
X422104Y287149D02*
X423153Y286624D01*
X424203Y285574D01*
Y284525D01*
X423678Y284000D01*
X422628D01*
X422104Y284525D01*
Y285050D01*
X422628Y285574D01*
X424203D01*
X430500Y294000D02*
Y297149D01*
X428926D01*
X428401Y296624D01*
Y295574D01*
X428926Y295050D01*
X430500D01*
X427351Y294000D02*
Y296099D01*
X426302Y297149D01*
X425252Y296099D01*
Y294000D01*
Y295574D01*
X427351D01*
X422628Y294000D02*
Y297149D01*
X424203Y295574D01*
X422104D01*
X430500Y304000D02*
Y307149D01*
X428926D01*
X428401Y306624D01*
Y305574D01*
X428926Y305049D01*
X430500D01*
X427351Y304000D02*
Y306099D01*
X426302Y307149D01*
X425252Y306099D01*
Y304000D01*
Y305574D01*
X427351D01*
X422104Y304000D02*
X424203D01*
X422104Y306099D01*
Y306624D01*
X422628Y307149D01*
X423678D01*
X424203Y306624D01*
X430500Y314000D02*
Y317149D01*
X428926D01*
X428401Y316624D01*
Y315574D01*
X428926Y315050D01*
X430500D01*
X427351Y314000D02*
Y316099D01*
X426302Y317149D01*
X425252Y316099D01*
Y314000D01*
Y315574D01*
X427351D01*
X424203Y316624D02*
X423678Y317149D01*
X422628D01*
X422104Y316624D01*
Y314525D01*
X422628Y314000D01*
X423678D01*
X424203Y314525D01*
Y316624D01*
X430500Y324000D02*
Y327149D01*
X428926D01*
X428401Y326624D01*
Y325574D01*
X428926Y325049D01*
X430500D01*
X425252Y326624D02*
X425777Y327149D01*
X426827D01*
X427351Y326624D01*
Y324525D01*
X426827Y324000D01*
X425777D01*
X425252Y324525D01*
X422104Y324000D02*
X424203D01*
X422104Y326099D01*
Y326624D01*
X422628Y327149D01*
X423678D01*
X424203Y326624D01*
X430500Y334000D02*
Y337149D01*
X428926D01*
X428401Y336624D01*
Y335574D01*
X428926Y335050D01*
X430500D01*
X425252Y336624D02*
X425777Y337149D01*
X426827D01*
X427351Y336624D01*
Y334525D01*
X426827Y334000D01*
X425777D01*
X425252Y334525D01*
X424203Y336624D02*
X423678Y337149D01*
X422628D01*
X422104Y336624D01*
Y334525D01*
X422628Y334000D01*
X423678D01*
X424203Y334525D01*
Y336624D01*
X430500Y357649D02*
Y355550D01*
X429451Y354500D01*
X428401Y355550D01*
Y357649D01*
X427351D02*
Y354500D01*
X425777D01*
X425252Y355025D01*
Y357124D01*
X425777Y357649D01*
X427351D01*
X424203D02*
Y354500D01*
X422628D01*
X422104Y355025D01*
Y357124D01*
X422628Y357649D01*
X424203D01*
X430500Y345000D02*
Y348149D01*
X428401Y345000D01*
Y348149D01*
X427351Y345000D02*
Y348149D01*
X425777D01*
X425252Y347624D01*
Y346574D01*
X425777Y346049D01*
X427351D01*
X426302D02*
X425252Y345000D01*
X422104Y347624D02*
X422628Y348149D01*
X423678D01*
X424203Y347624D01*
Y347099D01*
X423678Y346574D01*
X422628D01*
X422104Y346049D01*
Y345525D01*
X422628Y345000D01*
X423678D01*
X424203Y345525D01*
X421054Y348149D02*
X418955D01*
X420005D01*
Y345000D01*
X428401Y367124D02*
X428926Y367649D01*
X429975D01*
X430500Y367124D01*
Y365025D01*
X429975Y364500D01*
X428926D01*
X428401Y365025D01*
Y366074D01*
X429451D01*
X427351Y364500D02*
Y367649D01*
X425252Y364500D01*
Y367649D01*
X424203D02*
Y364500D01*
X422628D01*
X422104Y365025D01*
Y367124D01*
X422628Y367649D01*
X424203D01*
X467901Y347124D02*
X468426Y347649D01*
X469475D01*
X470000Y347124D01*
Y345025D01*
X469475Y344500D01*
X468426D01*
X467901Y345025D01*
Y346074D01*
X468951D01*
X466851Y344500D02*
Y347649D01*
X464752Y344500D01*
Y347649D01*
X463703D02*
Y344500D01*
X462128D01*
X461604Y345025D01*
Y347124D01*
X462128Y347649D01*
X463703D01*
X467901Y127124D02*
X468426Y127649D01*
X469475D01*
X470000Y127124D01*
Y125025D01*
X469475Y124500D01*
X468426D01*
X467901Y125025D01*
Y126074D01*
X468951D01*
X466851Y124500D02*
Y127649D01*
X464752Y124500D01*
Y127649D01*
X463703D02*
Y124500D01*
X462128D01*
X461604Y125025D01*
Y127124D01*
X462128Y127649D01*
X463703D01*
X470000Y134000D02*
Y137149D01*
X468426D01*
X467901Y136624D01*
Y135574D01*
X468426Y135049D01*
X470000D01*
X466851Y137149D02*
Y134000D01*
X465277D01*
X464752Y134525D01*
Y136624D01*
X465277Y137149D01*
X466851D01*
X463703Y134000D02*
X462653D01*
X463178D01*
Y137149D01*
X463703Y136624D01*
X458980Y137149D02*
X461079D01*
Y135574D01*
X460030Y136099D01*
X459505D01*
X458980Y135574D01*
Y134525D01*
X459505Y134000D01*
X460554D01*
X461079Y134525D01*
X470000Y144000D02*
Y147149D01*
X468426D01*
X467901Y146624D01*
Y145574D01*
X468426Y145050D01*
X470000D01*
X466851Y147149D02*
Y144000D01*
X465277D01*
X464752Y144525D01*
Y146624D01*
X465277Y147149D01*
X466851D01*
X463703Y144000D02*
X462653D01*
X463178D01*
Y147149D01*
X463703Y146624D01*
X461079D02*
X460554Y147149D01*
X459505D01*
X458980Y146624D01*
Y146099D01*
X459505Y145574D01*
X460030D01*
X459505D01*
X458980Y145050D01*
Y144525D01*
X459505Y144000D01*
X460554D01*
X461079Y144525D01*
X470000Y154000D02*
Y157149D01*
X468426D01*
X467901Y156624D01*
Y155574D01*
X468426Y155050D01*
X470000D01*
X466851Y157149D02*
Y154000D01*
X465277D01*
X464752Y154525D01*
Y156624D01*
X465277Y157149D01*
X466851D01*
X463703Y154000D02*
X462653D01*
X463178D01*
Y157149D01*
X463703Y156624D01*
X461079Y154000D02*
X460030D01*
X460554D01*
Y157149D01*
X461079Y156624D01*
X470000Y164000D02*
Y167149D01*
X468426D01*
X467901Y166624D01*
Y165574D01*
X468426Y165050D01*
X470000D01*
X466851Y167149D02*
Y164000D01*
X465277D01*
X464752Y164525D01*
Y166624D01*
X465277Y167149D01*
X466851D01*
X463703Y164525D02*
X463178Y164000D01*
X462128D01*
X461604Y164525D01*
Y166624D01*
X462128Y167149D01*
X463178D01*
X463703Y166624D01*
Y166099D01*
X463178Y165574D01*
X461604D01*
X470000Y174000D02*
Y177149D01*
X468426D01*
X467901Y176624D01*
Y175574D01*
X468426Y175049D01*
X470000D01*
X466851Y177149D02*
Y174000D01*
X465277D01*
X464752Y174525D01*
Y175049D01*
X465277Y175574D01*
X466851D01*
X465277D01*
X464752Y176099D01*
Y176624D01*
X465277Y177149D01*
X466851D01*
X463703Y174000D02*
X462653D01*
X463178D01*
Y177149D01*
X463703Y176624D01*
X458980Y177149D02*
X461079D01*
Y175574D01*
X460030Y176099D01*
X459505D01*
X458980Y175574D01*
Y174525D01*
X459505Y174000D01*
X460554D01*
X461079Y174525D01*
X470000Y184000D02*
Y187149D01*
X468426D01*
X467901Y186624D01*
Y185574D01*
X468426Y185049D01*
X470000D01*
X466851Y187149D02*
Y184000D01*
X465277D01*
X464752Y184525D01*
Y185049D01*
X465277Y185574D01*
X466851D01*
X465277D01*
X464752Y186099D01*
Y186624D01*
X465277Y187149D01*
X466851D01*
X463703Y184000D02*
X462653D01*
X463178D01*
Y187149D01*
X463703Y186624D01*
X461079D02*
X460554Y187149D01*
X459505D01*
X458980Y186624D01*
Y186099D01*
X459505Y185574D01*
X460030D01*
X459505D01*
X458980Y185049D01*
Y184525D01*
X459505Y184000D01*
X460554D01*
X461079Y184525D01*
X470000Y194000D02*
Y197149D01*
X468426D01*
X467901Y196624D01*
Y195574D01*
X468426Y195050D01*
X470000D01*
X466851Y197149D02*
Y194000D01*
X465277D01*
X464752Y194525D01*
Y195050D01*
X465277Y195574D01*
X466851D01*
X465277D01*
X464752Y196099D01*
Y196624D01*
X465277Y197149D01*
X466851D01*
X463703Y194000D02*
X462653D01*
X463178D01*
Y197149D01*
X463703Y196624D01*
X461079Y194000D02*
X460030D01*
X460554D01*
Y197149D01*
X461079Y196624D01*
X470000Y204000D02*
Y207149D01*
X468426D01*
X467901Y206624D01*
Y205574D01*
X468426Y205049D01*
X470000D01*
X464752Y207149D02*
X466851D01*
Y204000D01*
X464752D01*
X466851Y205574D02*
X465802D01*
X463703Y204000D02*
X462653D01*
X463178D01*
Y207149D01*
X463703Y206624D01*
X458980Y207149D02*
X461079D01*
Y205574D01*
X460030Y206099D01*
X459505D01*
X458980Y205574D01*
Y204525D01*
X459505Y204000D01*
X460554D01*
X461079Y204525D01*
X470000Y214000D02*
Y217149D01*
X468426D01*
X467901Y216624D01*
Y215574D01*
X468426Y215050D01*
X470000D01*
X464752Y217149D02*
X466851D01*
Y214000D01*
X464752D01*
X466851Y215574D02*
X465802D01*
X463703Y214000D02*
X462653D01*
X463178D01*
Y217149D01*
X463703Y216624D01*
X461079D02*
X460554Y217149D01*
X459505D01*
X458980Y216624D01*
Y216099D01*
X459505Y215574D01*
X460030D01*
X459505D01*
X458980Y215050D01*
Y214525D01*
X459505Y214000D01*
X460554D01*
X461079Y214525D01*
X470000Y224000D02*
Y227149D01*
X468426D01*
X467901Y226624D01*
Y225574D01*
X468426Y225049D01*
X470000D01*
X464752Y227149D02*
X466851D01*
Y224000D01*
X464752D01*
X466851Y225574D02*
X465802D01*
X463703Y224000D02*
X462653D01*
X463178D01*
Y227149D01*
X463703Y226624D01*
X461079Y224000D02*
X460030D01*
X460554D01*
Y227149D01*
X461079Y226624D01*
X470000Y234000D02*
Y237149D01*
X468426D01*
X467901Y236624D01*
Y235574D01*
X468426Y235050D01*
X470000D01*
X464752Y237149D02*
X466851D01*
Y234000D01*
X464752D01*
X466851Y235574D02*
X465802D01*
X463703Y234525D02*
X463178Y234000D01*
X462128D01*
X461604Y234525D01*
Y236624D01*
X462128Y237149D01*
X463178D01*
X463703Y236624D01*
Y236099D01*
X463178Y235574D01*
X461604D01*
X470000Y244000D02*
Y247149D01*
X468426D01*
X467901Y246624D01*
Y245574D01*
X468426Y245050D01*
X470000D01*
X464752Y247149D02*
X466851D01*
Y244000D01*
X464752D01*
X466851Y245574D02*
X465802D01*
X463703Y247149D02*
X461604D01*
Y246624D01*
X463703Y244525D01*
Y244000D01*
X467901Y257124D02*
X468426Y257649D01*
X469475D01*
X470000Y257124D01*
Y255025D01*
X469475Y254500D01*
X468426D01*
X467901Y255025D01*
Y256074D01*
X468951D01*
X466851Y254500D02*
Y257649D01*
X464752Y254500D01*
Y257649D01*
X463703D02*
Y254500D01*
X462128D01*
X461604Y255025D01*
Y257124D01*
X462128Y257649D01*
X463703D01*
X470000Y264000D02*
Y267149D01*
X468426D01*
X467901Y266624D01*
Y265574D01*
X468426Y265050D01*
X470000D01*
X466851Y267149D02*
Y264000D01*
X465277D01*
X464752Y264525D01*
Y265050D01*
X465277Y265574D01*
X466851D01*
X465277D01*
X464752Y266099D01*
Y266624D01*
X465277Y267149D01*
X466851D01*
X463703Y264000D02*
X462653D01*
X463178D01*
Y267149D01*
X463703Y266624D01*
X470000Y274000D02*
Y277149D01*
X468426D01*
X467901Y276624D01*
Y275574D01*
X468426Y275049D01*
X470000D01*
X464752Y276624D02*
X465277Y277149D01*
X466327D01*
X466851Y276624D01*
Y274525D01*
X466327Y274000D01*
X465277D01*
X464752Y274525D01*
X461604Y277149D02*
X463703D01*
Y275574D01*
X462653Y276099D01*
X462128D01*
X461604Y275574D01*
Y274525D01*
X462128Y274000D01*
X463178D01*
X463703Y274525D01*
X470000Y284000D02*
Y287149D01*
X468426D01*
X467901Y286624D01*
Y285574D01*
X468426Y285050D01*
X470000D01*
X466851Y284000D02*
Y286099D01*
X465802Y287149D01*
X464752Y286099D01*
Y284000D01*
Y285574D01*
X466851D01*
X463703Y287149D02*
X461604D01*
Y286624D01*
X463703Y284525D01*
Y284000D01*
X470000Y294000D02*
Y297149D01*
X468426D01*
X467901Y296624D01*
Y295574D01*
X468426Y295050D01*
X470000D01*
X466851Y294000D02*
Y296099D01*
X465802Y297149D01*
X464752Y296099D01*
Y294000D01*
Y295574D01*
X466851D01*
X461604Y297149D02*
X463703D01*
Y295574D01*
X462653Y296099D01*
X462128D01*
X461604Y295574D01*
Y294525D01*
X462128Y294000D01*
X463178D01*
X463703Y294525D01*
X470000Y304000D02*
Y307149D01*
X468426D01*
X467901Y306624D01*
Y305574D01*
X468426Y305049D01*
X470000D01*
X466851Y304000D02*
Y306099D01*
X465802Y307149D01*
X464752Y306099D01*
Y304000D01*
Y305574D01*
X466851D01*
X463703Y306624D02*
X463178Y307149D01*
X462128D01*
X461604Y306624D01*
Y306099D01*
X462128Y305574D01*
X462653D01*
X462128D01*
X461604Y305049D01*
Y304525D01*
X462128Y304000D01*
X463178D01*
X463703Y304525D01*
X470000Y314000D02*
Y317149D01*
X468426D01*
X467901Y316624D01*
Y315574D01*
X468426Y315050D01*
X470000D01*
X466851Y314000D02*
Y316099D01*
X465802Y317149D01*
X464752Y316099D01*
Y314000D01*
Y315574D01*
X466851D01*
X463703Y314000D02*
X462653D01*
X463178D01*
Y317149D01*
X463703Y316624D01*
X470000Y324000D02*
Y327149D01*
X468426D01*
X467901Y326624D01*
Y325574D01*
X468426Y325049D01*
X470000D01*
X464752Y326624D02*
X465277Y327149D01*
X466327D01*
X466851Y326624D01*
Y324525D01*
X466327Y324000D01*
X465277D01*
X464752Y324525D01*
X463703Y326624D02*
X463178Y327149D01*
X462128D01*
X461604Y326624D01*
Y326099D01*
X462128Y325574D01*
X462653D01*
X462128D01*
X461604Y325049D01*
Y324525D01*
X462128Y324000D01*
X463178D01*
X463703Y324525D01*
X470000Y334500D02*
Y337649D01*
X468426D01*
X467901Y337124D01*
Y336074D01*
X468426Y335549D01*
X470000D01*
X464752Y337124D02*
X465277Y337649D01*
X466327D01*
X466851Y337124D01*
Y335025D01*
X466327Y334500D01*
X465277D01*
X464752Y335025D01*
X463703Y334500D02*
X462653D01*
X463178D01*
Y337649D01*
X463703Y337124D01*
X470000Y357649D02*
Y355550D01*
X468951Y354500D01*
X467901Y355550D01*
Y357649D01*
X466851D02*
Y354500D01*
X465277D01*
X464752Y355025D01*
Y357124D01*
X465277Y357649D01*
X466851D01*
X463703D02*
Y354500D01*
X462128D01*
X461604Y355025D01*
Y357124D01*
X462128Y357649D01*
X463703D01*
X467901Y367124D02*
X468426Y367649D01*
X469475D01*
X470000Y367124D01*
Y365025D01*
X469475Y364500D01*
X468426D01*
X467901Y365025D01*
Y366074D01*
X468951D01*
X466851Y364500D02*
Y367649D01*
X464752Y364500D01*
Y367649D01*
X463703D02*
Y364500D01*
X462128D01*
X461604Y365025D01*
Y367124D01*
X462128Y367649D01*
X463703D01*
D11*
X476500Y381000D02*
X74000D01*
Y116500D02*
Y381000D01*
X476500Y116500D02*
X74000D01*
X476500D02*
Y381000D01*
X307500Y252998D02*
Y251998D01*
X305501Y249999D01*
X303501Y251998D01*
Y252998D01*
X305501Y249999D02*
Y247000D01*
X301502D02*
Y250999D01*
X299503Y252998D01*
X297503Y250999D01*
Y247000D01*
Y249999D01*
X301502D01*
X291505Y251998D02*
X292505Y252998D01*
X294504D01*
X295504Y251998D01*
Y250999D01*
X294504Y249999D01*
X292505D01*
X291505Y248999D01*
Y248000D01*
X292505Y247000D01*
X294504D01*
X295504Y248000D01*
X289506Y252998D02*
X287507D01*
X288506D01*
Y247000D01*
X289506D01*
X287507D01*
X284507D02*
Y252998D01*
X280509Y247000D01*
Y252998D01*
X272511D02*
X268513D01*
X270512D01*
Y247000D01*
X262515Y252998D02*
X266513D01*
Y247000D01*
X262515D01*
X266513Y249999D02*
X264514D01*
X260515Y252998D02*
Y247000D01*
Y248999D01*
X256517Y252998D01*
X259516Y249999D01*
X256517Y247000D01*
X254517Y252998D02*
X252518D01*
X253518D01*
Y247000D01*
X254517D01*
X252518D01*
X249519D02*
Y252998D01*
X245520Y247000D01*
Y252998D01*
M02*
